<?xml version="1.0" encoding="UTF-8"?>
<svg version="1.1" xmlns="http://www.w3.org/2000/svg" width="500" height="500">
<path d="M0 0 C165 0 330 0 500 0 C500 165 500 330 500 500 C335 500 170 500 0 500 C0 335 0 170 0 0 Z " fill="#F0EEE6" transform="translate(0,0)"/>
<path d="M0 0 C3.96 0 7.92 0 12 0 C12.33 8.58 12.66 17.16 13 26 C14.65 25.01 16.3 24.02 18 23 C22.83405399 22.1373312 27.49640358 22.36608897 31.875 24.6875 C35 27 35 27 39 32 C39.33 21.44 39.66 10.88 40 0 C43.96 0 47.92 0 52 0 C52.33 10.89 52.66 21.78 53 33 C54.32 31.35 55.64 29.7 57 28 C62.30353493 23.74667001 67.47121206 22.23723862 74.22265625 22.578125 C81.52712166 23.68766405 87.26184484 26.31421381 92 32 C92.721875 31.071875 93.44375 30.14375 94.1875 29.1875 C97.17340079 25.67906657 99.5530976 23.29559895 104.328125 22.71875 C109.66176168 22.52712233 113.37813521 23.0809275 118 26 C118.33 25.34 118.66 24.68 119 24 C122.96 24 126.92 24 131 24 C131.07434992 29.72913803 131.12869672 35.45799301 131.16479492 41.1875 C131.17984899 43.13514094 131.2002968 45.08274816 131.22631836 47.03027344 C131.26285053 49.83537128 131.27976033 52.64001954 131.29296875 55.4453125 C131.30845261 56.31116974 131.32393646 57.17702698 131.33988953 58.06912231 C131.34129146 63.14493983 130.82746857 66.6078239 128 71 C122.40163818 76.47395378 117.81239239 78.07561663 110.125 78.375 C103.1355438 78.25359505 98.85300017 76.22673184 93.4375 72 C92 70 92 70 92.125 67.984375 C93 66 93 66 95.06640625 64.953125 C95.89011719 64.72109375 96.71382813 64.4890625 97.5625 64.25 C98.38878906 64.00765625 99.21507812 63.7653125 100.06640625 63.515625 C100.70449219 63.34546875 101.34257812 63.1753125 102 63 C102.40347656 63.48726563 102.80695313 63.97453125 103.22265625 64.4765625 C105.96990358 66.83134592 108.35099059 66.41569986 111.8359375 66.28515625 C114.72259682 65.90478417 116.17779108 65.29756777 118 63 C118.33425735 60.37374861 118.33425735 60.37374861 118 58 C117.28457031 58.3196875 116.56914062 58.639375 115.83203125 58.96875 C111.20458046 60.65378036 106.84858972 60.79229748 102 60 C97.63793303 57.76971737 94.70615282 55.05922923 92 51 C91.48050781 51.48210937 90.96101563 51.96421875 90.42578125 52.4609375 C89.72839844 53.09257812 89.03101563 53.72421875 88.3125 54.375 C87.62800781 55.00148438 86.94351563 55.62796875 86.23828125 56.2734375 C80.13794051 60.97911046 73.40220688 60.71605387 66 60 C59.99644674 58.31479207 56.59837737 54.94776889 53 50 C52.67 52.97 52.34 55.94 52 59 C48.04 59 44.08 59 40 59 C39.505 55.04 39.505 55.04 39 51 C37.948125 52.3921875 37.948125 52.3921875 36.875 53.8125 C33.65623798 57.60508032 30.64681518 59.69361625 25.5703125 60.28125 C20.5590779 60.45969159 17.06537239 60.25229791 13 57 C12.67 57.66 12.34 58.32 12 59 C8.04 59 4.08 59 0 59 C0 39.53 0 20.06 0 0 Z " fill="#040404" transform="translate(231,206)"/>
<path d="M0 0 C3.625 1.5 3.625 1.5 6 3 C6.33 2.34 6.66 1.68 7 1 C10.96 1 14.92 1 19 1 C19 12.55 19 24.1 19 36 C15.04 36 11.08 36 7 36 C6.67 35.34 6.34 34.68 6 34 C5.21625 34.495 4.4325 34.99 3.625 35.5 C-1.10247988 37.45619857 -4.95590225 37.94187628 -10 37 C-15.38215008 34.48402916 -19.05124668 30.58301559 -21.375 25.13671875 C-22.94302744 19.77602495 -22.69306176 14.9524885 -20.5 9.8125 C-15.84708107 1.69429529 -9.21394976 -1.61244121 0 0 Z " fill="#050504" transform="translate(157,229)"/>
<path d="M0 0 C3.37720649 1.47752784 5.23105015 2.60487358 7.46484375 5.6171875 C9.43181646 11.26102409 9.06270841 16.75315621 8.9375 22.6796875 C8.91719727 24.49919922 8.91719727 24.49919922 8.89648438 26.35546875 C8.86124897 29.33873318 8.80744567 32.32176809 8.75 35.3046875 C4.79 35.3046875 0.83 35.3046875 -3.25 35.3046875 C-3.27578125 33.76296875 -3.3015625 32.22125 -3.328125 30.6328125 C-3.38440472 28.60674247 -3.44175209 26.5807019 -3.5 24.5546875 C-3.51417969 23.53890625 -3.52835938 22.523125 -3.54296875 21.4765625 C-3.64542338 15.67617212 -3.64542338 15.67617212 -6.13671875 10.59765625 C-8.20162975 9.07166005 -8.20162975 9.07166005 -10.8125 9.3671875 C-13.45538229 10.38368069 -14.51740086 11.09379166 -16.25 13.3046875 C-16.75330762 15.71532192 -16.75330762 15.71532192 -16.76171875 18.41015625 C-16.79716797 19.39306641 -16.83261719 20.37597656 -16.86914062 21.38867188 C-16.90297852 22.92491211 -16.90297852 22.92491211 -16.9375 24.4921875 C-16.97166016 25.52794922 -17.00582031 26.56371094 -17.04101562 27.63085938 C-17.12351759 30.18842014 -17.18843456 32.74653713 -17.25 35.3046875 C-21.21 35.3046875 -25.17 35.3046875 -29.25 35.3046875 C-29.25 23.7546875 -29.25 12.2046875 -29.25 0.3046875 C-25.29 0.3046875 -21.33 0.3046875 -17.25 0.3046875 C-17.25 1.2946875 -17.25 2.2846875 -17.25 3.3046875 C-16.445625 2.6446875 -15.64125 1.9846875 -14.8125 1.3046875 C-10.11009455 -1.79336786 -5.27177108 -1.6291237 0 0 Z " fill="#040404" transform="translate(207.25,229.6953125)"/>
<path d="M0 0 C3.96 0 7.92 0 12 0 C12 11.55 12 23.1 12 35 C8.04 35 4.08 35 0 35 C0 23.45 0 11.9 0 0 Z " fill="#020101" transform="translate(217,230)"/>
<path d="M0 0 C3.8425303 0.72047443 5.45767292 1.57152696 8 4.5625 C8.7975483 9.58705429 8.82360163 11.39976829 5.875 15.5625 C3 17.5625 3 17.5625 0 18.25 C-4.35321372 17.25238852 -5.65945491 15.27983632 -8 11.5625 C-8.625 8.5 -8.625 8.5 -8 5.5625 C-5.53959272 2.23371368 -4.10389613 0.76948052 0 0 Z " fill="#E5E3DC" transform="translate(342,238.4375)"/>
<path d="M0 0 C3.8425303 0.72047443 5.45767292 1.57152696 8 4.5625 C8.7975483 9.58705429 8.82360163 11.39976829 5.875 15.5625 C3 17.5625 3 17.5625 0 18.25 C-4.35321372 17.25238852 -5.65945491 15.27983632 -8 11.5625 C-8.625 8.5 -8.625 8.5 -8 5.5625 C-5.53959272 2.23371368 -4.10389613 0.76948052 0 0 Z " fill="#E5E3DC" transform="translate(156,238.4375)"/>
<path d="M0 0 C3.74225404 1.1566967 5.28964665 1.79776291 7.4375 5.0625 C7.99671637 8.97701456 8.07024809 11.1007229 5.875 14.4375 C2.58257816 16.6324479 0.39580645 17.13194397 -3.5625 17.0625 C-6.5 15.0625 -6.5 15.0625 -8.5625 12.0625 C-9.36035988 7.59448469 -9.07984028 5.81499495 -6.5 2.0625 C-3.5625 0.0625 -3.5625 0.0625 0 0 Z " fill="#E7E5DD" transform="translate(251.5625,238.9375)"/>
<path d="M0 0 C2.5 2.125 2.5 2.125 4 5 C4.07481382 9.26438773 3.64839572 11.23718151 0.875 14.5 C-2.91613014 16.47798094 -4.92797973 16.13111674 -9 15 C-11.11130276 13.38951789 -11.89153752 12.4907927 -12.46875 9.87890625 C-12.52426701 5.76370783 -12.54853806 3.69813934 -9.9375 0.375 C-6.05118362 -1.44412682 -4.0801632 -1.26114135 0 0 Z " fill="#E7E5DD" transform="translate(308,240)"/>
<path d="M0 0 C4.30169173 1.40272556 4.30169173 1.40272556 5.875 3.9375 C6.375 6.8125 6.375 6.8125 5.875 9.9375 C3.75 12.875 3.75 12.875 0.875 14.9375 C-2.68453149 15.00869063 -4.34619455 14.6384249 -7 12.25 C-8.49794243 9.17089611 -8.68883235 7.32049409 -8.125 3.9375 C-5.43583153 0.85286557 -4.12776368 -0.08255527 0 0 Z " fill="#0B0B0A" transform="translate(224.125,208.0625)"/>
<path d="M0 0 C2.125 0.375 2.125 0.375 4 1 C4.625 4.375 4.625 4.375 5 8 C4.34 8.66 3.68 9.32 3 10 C0.375 9.625 0.375 9.625 -2 9 C-2.125 5.625 -2.125 5.625 -2 2 C-1.34 1.34 -0.68 0.68 0 0 Z " fill="#343432" transform="translate(244,436)"/>
<path d="M0 0 C2 0 2 0 3.625 1.5 C4.07875 1.995 4.5325 2.49 5 3 C5.66 2.01 6.32 1.02 7 0 C7.66 0 8.32 0 9 0 C9 2.97 9 5.94 9 9 C8.34 9 7.68 9 7 9 C6.67 7.68 6.34 6.36 6 5 C5.01 5.33 4.02 5.66 3 6 C2.67 5.34 2.34 4.68 2 4 C1.67 5.65 1.34 7.3 1 9 C0.67 9 0.34 9 0 9 C0 6.03 0 3.06 0 0 Z " fill="#323230" transform="translate(262,274)"/>
<path d="M0 0 C1.98 0 3.96 0 6 0 C6 0.66 6 1.32 6 2 C4.68 2 3.36 2 2 2 C2 2.66 2 3.32 2 4 C3.32 4 4.64 4 6 4 C6 4.66 6 5.32 6 6 C4.68 6 3.36 6 2 6 C2 6.99 2 7.98 2 9 C3.32 9.33 4.64 9.66 6 10 C4.02 10 2.04 10 0 10 C0 6.7 0 3.4 0 0 Z " fill="#4B4B48" transform="translate(282,273)"/>
<path d="M0 0 C3.86107457 2.57404971 3.94319692 4.61020259 5 9 C4.34 9 3.68 9 3 9 C3 8.34 3 7.68 3 7 C1.35 7 -0.3 7 -2 7 C-2 7.66 -2 8.32 -2 9 C-2.66 8.67 -3.32 8.34 -4 8 C-2.68 5.36 -1.36 2.72 0 0 Z " fill="#535250" transform="translate(215,274)"/>
<path d="M0 0 C1.67542976 0.28604898 3.34385343 0.61781233 5 1 C5 1.99 5 2.98 5 4 C3.68 4.33 2.36 4.66 1 5 C2.32 5 3.64 5 5 5 C5 5.66 5 6.32 5 7 C3.33388095 7.042721 1.66617115 7.04063832 0 7 C-1 6 -1 6 -1.125 3.5 C-1 1 -1 1 0 0 Z " fill="#494846" transform="translate(262,426)"/>
<path d="M0 0 C0.33 0 0.66 0 1 0 C2.25 6.625 2.25 6.625 0 10 C0 9.01 0 8.02 0 7 C-1.32 7 -2.64 7 -4 7 C-2.92598892 4.08482708 -2.22189824 2.22189824 0 0 Z " fill="#393836" transform="translate(264,436)"/>
<path d="M0 0 C0.99 0 1.98 0 3 0 C3 1.98 3 3.96 3 6 C1.68 6 0.36 6 -1 6 C-1.042721 4.33388095 -1.04063832 2.66617115 -1 1 C-0.67 0.67 -0.34 0.34 0 0 Z " fill="#DBD9D2" transform="translate(244,438)"/>
<path d="M0 0 C-0.375 2.4375 -0.375 2.4375 -1 5 C-1.99 5.495 -1.99 5.495 -3 6 C-2.67 4.35 -2.34 2.7 -2 1 C-3.32 1.33 -4.64 1.66 -6 2 C-6 1.34 -6 0.68 -6 0 C-3.50907189 -1.24546405 -2.58919267 -0.7767578 0 0 Z " fill="#51514E" transform="translate(257,437)"/>
</svg>
